<svg xmlns="http://www.w3.org/2000/svg" viewBox="0 0 1024 1024" width="512" height="512"><circle cx="512" cy="512" r="512" fill="#fff"/><path d="M512 192C288.69 192 95.09 322.06 0 512c95.09 189.94 288.69 320 512 320s416.88-130.06 512-320c-95.12-189.94-288.68-320-512-320zm0 96c73 0 128 17 128 17L512 566 384 306s51-18 128-18zm252.5 374.25a469 469 0 01-504.91 0A486.61 486.61 0 01110.16 512a486.06 486.06 0 01149.43-150.28c3.91-2.5 7.88-4.91 11.85-7.28A254.27 254.27 0 00256 442.06c0 141.38 114.63 256 256 256s256-114.62 256-256a254.27 254.27 0 00-15.44-87.62c3.94 2.37 7.94 4.78 11.82 7.28h.12A487.63 487.63 0 01913.88 512 486.13 486.13 0 01764.5 662.25z" fill="#212529"/></svg>
